<svg width="68" height="69" xmlns="http://www.w3.org/2000/svg" xmlns:xlink="http://www.w3.org/1999/xlink" xml:space="preserve" overflow="hidden"><g transform="translate(92 -520)"><path d="M34.7 57.8996C34.6363 57.9115 34.5709 57.9176 34.5045 57.9176L27.084 57.9176C26.6427 57.9176 26.2469 57.6459 26.0885 57.2341 26.0885 57.2341 24.5391 53.2081 24.5391 53.2081 22.3837 52.6436 20.3235 51.7852 18.4024 50.6667L14.4533 52.4159C14.0503 52.5944 13.5788 52.5065 13.2671 52.1948L8.0212 46.9489C7.70907 46.6368 7.62133 46.1647 7.8008 45.7612 7.8008 45.7612 9.55533 41.8149 9.55547 41.8151 8.43253 39.8993 7.57893 37.8349 7.00987 35.6852L2.98187 34.1349C2.57013 33.9765 2.2984 33.5808 2.2984 33.1395L2.2984 25.7189C2.2984 25.2776 2.57013 24.882 2.98187 24.7235 2.98187 24.7235 7.00947 23.1733 7.00947 23.1735 7.57867 21.0181 8.4324 18.9579 9.55573 17.0368L7.8008 13.0897C7.62133 12.6864 7.70907 12.2143 8.0212 11.9021L13.2671 6.65613C13.5792 6.344 14.0513 6.2564 14.4547 6.43573 14.4547 6.43573 18.4019 8.19067 18.4017 8.19067 20.3228 7.06733 22.3825 6.21413 24.532 5.65053L26.0888 1.616C26.2476 1.20467 26.6431 0.933333 27.084 0.933333L34.5045 0.933333C34.946 0.933333 35.3419 1.20533 35.5003 1.61747 35.5003 1.61747 37.05 5.65067 37.0499 5.65067 39.1991 6.2144 41.2585 7.0676 43.1792 8.19067L47.1263 6.43573C47.5296 6.2564 48.0017 6.344 48.3139 6.65613L53.5599 11.9021C53.8716 12.2139 53.9595 12.6852 53.7809 13.0883 53.7809 13.0883 52.0323 17.036 52.0323 17.0359 53.156 18.9575 54.0095 21.0183 54.5733 23.174L58.5991 24.7235C59.0109 24.882 59.2827 25.2776 59.2827 25.7189L59.2827 33.1395C59.2827 33.5808 59.0109 33.9765 58.5991 34.1349 58.5991 34.1349 56.2557 35.0369 55.1444 35.4645 61.3139 37.7945 65.7016 43.7512 65.7016 50.7368 65.7016 59.7545 58.3895 67.0667 49.3719 67.0667 42.9232 67.0667 37.3515 63.3276 34.7 57.8996ZM52.6119 34.7369C52.6195 34.7052 52.6272 34.6733 52.6347 34.6415 52.716 34.2992 52.9609 34.0191 53.2893 33.8927L57.1493 32.4071 57.1493 26.4513 53.2893 24.9657C52.9608 24.8393 52.7157 24.5588 52.6345 24.2161 52.0855 21.8985 51.1727 19.6951 49.9247 17.6697 49.7403 17.3705 49.7152 16.9996 49.8575 16.6781L51.534 12.8932 47.3235 8.68267 43.5392 10.3653C43.2175 10.5084 42.846 10.4835 42.5463 10.2988 40.5208 9.0508 38.3172 8.13787 36.0065 7.5888 35.664 7.50733 35.3837 7.26213 35.2575 6.9336L33.7717 3.06667 27.8157 3.06667 26.3229 6.93493C26.1964 7.26293 25.9164 7.50747 25.5744 7.5888 23.2639 8.13787 21.0601 9.0508 19.0348 10.2988 18.7351 10.4835 18.3635 10.5084 18.0419 10.3653L14.2575 8.68267 10.0477 12.8925 11.7304 16.6768C11.8735 16.9985 11.8485 17.37 11.6639 17.6697 10.4153 19.6959 9.50227 21.9005 8.94573 24.2192 8.86387 24.5605 8.6192 24.8397 8.29173 24.9657L4.43173 26.4513 4.43173 32.4071 8.29173 33.8927C8.61907 34.0187 8.86347 34.2975 8.9456 34.6385 9.502 36.9496 10.4147 39.1611 11.6629 41.1797 11.8484 41.4797 11.8736 41.8519 11.7304 42.1741L10.0477 45.9585C10.0477 45.9585 14.2583 50.1691 14.2583 50.1691L18.0432 48.4925C18.3637 48.3505 18.7336 48.3751 19.0324 48.5583 21.0585 49.7995 23.2627 50.7201 25.5812 51.2695 25.9239 51.3507 26.2043 51.5957 26.3308 51.9243L27.8164 55.7843 33.7721 55.7843 33.812 55.6808C33.3175 54.1212 33.0508 52.4601 33.0508 50.7368 33.0508 49.8792 33.1168 49.0371 33.2441 48.2152 32.4409 48.3191 31.622 48.3727 30.7905 48.3727 20.3252 48.3727 11.8433 39.8908 11.8433 29.4255 11.8433 18.9601 20.3252 10.4783 30.7905 10.4783 41.2559 10.4783 49.7377 18.9601 49.7377 29.4255 49.7377 31.1537 49.5063 32.8277 49.0728 34.4185 49.1723 34.4167 49.2719 34.4159 49.3719 34.4159 50.4811 34.4159 51.5645 34.5264 52.6119 34.7369ZM33.7543 45.9792C34.8527 42.3655 37.1701 39.2841 40.2285 37.2131 38.1731 34.1983 34.7124 32.2183 30.7905 32.2183 25.0807 32.2183 20.3475 36.4145 19.5076 41.8923 22.4908 44.5939 26.4483 46.2393 30.7905 46.2393 31.8017 46.2393 32.7923 46.1501 33.7543 45.9792ZM42.0732 36.1331C43.5331 35.4025 45.118 34.8843 46.7875 34.6191 47.3179 32.9835 47.6044 31.238 47.6044 29.4255 47.6044 20.1385 40.0775 12.6116 30.7905 12.6116 21.5035 12.6116 13.9767 20.1385 13.9767 29.4255 13.9767 33.4404 15.3835 37.1264 17.7311 40.0175 18.9289 35.6877 22.2211 32.2272 26.4475 30.7967 24.6087 29.4511 23.4092 27.2779 23.4092 24.8369 23.4092 20.776 26.7295 17.4557 30.7905 17.4557 34.8515 17.4557 38.1717 20.776 38.1717 24.8369 38.1717 27.2777 36.9724 29.4509 35.1336 30.7965 37.9951 31.7649 40.4284 33.6637 42.0732 36.1331ZM30.7905 30.0849C33.6777 30.0849 36.0384 27.7243 36.0384 24.8369 36.0384 21.9497 33.6777 19.5891 30.7905 19.5891 27.9032 19.5891 25.5425 21.9497 25.5425 24.8369 25.5425 27.7243 27.9032 30.0849 30.7905 30.0849ZM49.3719 36.5492C41.5325 36.5492 35.1841 42.8976 35.1841 50.7368 35.1841 58.5763 41.5324 64.9333 49.3719 64.9333 57.2115 64.9333 63.5683 58.5764 63.5683 50.7368 63.5683 42.8975 57.2112 36.5492 49.3719 36.5492ZM46.7244 51.4667 53.7911 44.3263 53.7931 44.3243C55.1344 42.976 57.3236 42.9695 58.6719 44.3108 60.0196 45.6516 60.0281 47.8329 58.6873 49.1876L58.6868 49.1881C55.5123 52.3915 52.3616 55.6141 49.1725 58.8032 47.8249 60.1508 45.6367 60.1508 44.2889 58.8032L39.0031 53.5124C37.6559 52.1653 37.654 49.9848 39.0011 48.6308L39.0031 48.6288C40.3507 47.2812 42.5389 47.2812 43.8867 48.6288ZM45.9741 53.7333 42.3781 50.1373C41.8633 49.6225 41.0277 49.6223 40.5125 50.1364 39.9979 50.6548 39.9963 51.4887 40.5116 52.004L45.7975 57.2947C46.3127 57.8097 47.1489 57.8097 47.6641 57.2947 50.8507 54.1081 53.9989 50.8879 57.1711 47.6869 57.6835 47.1692 57.6823 46.3356 57.1673 45.8232 56.6529 45.3115 55.8177 45.3143 55.3059 45.8284L47.4865 53.7293C47.2868 53.9311 47.0151 54.0449 46.7312 54.0457 46.4473 54.0464 46.1748 53.934 45.9741 53.7333Z" stroke="#0D0D0D" stroke-width="0.133333" stroke-linejoin="round" stroke-miterlimit="2" fill="#0D0D0D" fill-rule="evenodd" transform="matrix(1 0 0 1.01471 -92 520)"/></g></svg>