<svg width="61" height="61" xmlns="http://www.w3.org/2000/svg" xmlns:xlink="http://www.w3.org/1999/xlink" xml:space="preserve" overflow="hidden"><g transform="translate(-684 -465)"><path d="M700.993 521.853C705.043 523.933 709.634 525.106 714.5 525.106 719.642 525.106 724.477 523.796 728.69 521.489" stroke="#000000" stroke-width="1.7871" stroke-linecap="round" stroke-linejoin="round" stroke-miterlimit="10" fill="none"/><path d="M691.306 513.9C691.266 513.851 691.227 513.802 691.189 513.754" stroke="#000000" stroke-width="1.7871" stroke-linecap="round" stroke-linejoin="round" stroke-miterlimit="10" fill="none"/><path d="M689.554 479.547C688.646 480.965 687.855 482.465 687.197 484.034" stroke="#000000" stroke-width="1.7871" stroke-linecap="round" stroke-linejoin="round" stroke-miterlimit="10" fill="none"/><path d="M685.861 487.968C685.23 490.373 684.894 492.897 684.894 495.5 684.894 501.29 686.557 506.692 689.429 511.255" stroke="#000000" stroke-width="1.7871" stroke-linecap="round" stroke-linejoin="round" stroke-miterlimit="10" fill="none"/><path d="M740.271 480.917C742.712 485.222 744.106 490.198 744.106 495.5 744.106 502.214 741.871 508.405 738.104 513.372" stroke="#000000" stroke-width="1.7871" stroke-linecap="round" stroke-linejoin="round" stroke-miterlimit="10" fill="none"/><path d="M701.666 468.813C705.549 466.942 709.902 465.894 714.5 465.894 719.012 465.894 723.287 466.903 727.113 468.708" stroke="#000000" stroke-width="1.7871" stroke-linecap="round" stroke-linejoin="round" stroke-miterlimit="10" fill="none"/><path d="M729.909 495.5C729.909 504.01 723.01 510.909 714.5 510.909 705.99 510.909 699.091 504.01 699.091 495.5 699.091 486.99 705.99 480.091 714.5 480.091 723.01 480.091 729.909 486.99 729.909 495.5Z" stroke="#000000" stroke-width="1.7871" stroke-linecap="round" stroke-linejoin="round" stroke-miterlimit="10" fill="none"/><path d="M714.5 510.909 710.002 516.751C709.431 517.492 709.431 518.523 710.002 519.264L714.5 525.107" stroke="#000000" stroke-width="1.7871" stroke-linecap="round" stroke-linejoin="round" stroke-miterlimit="10" fill="none"/><path d="M714.5 465.894 718.999 471.736C719.569 472.477 719.569 473.508 718.999 474.249L714.5 480.091" stroke="#000000" stroke-width="1.7871" stroke-linecap="round" stroke-linejoin="round" stroke-miterlimit="10" fill="none"/><path d="M699.091 495.5 693.249 491.001C692.508 490.431 691.477 490.431 690.736 491.001L684.894 495.5" stroke="#000000" stroke-width="1.7871" stroke-linecap="round" stroke-linejoin="round" stroke-miterlimit="10" fill="none"/><path d="M744.106 495.5 738.264 499.999C737.523 500.569 736.492 500.569 735.751 499.999L729.909 495.5" stroke="#000000" stroke-width="1.7871" stroke-linecap="round" stroke-linejoin="round" stroke-miterlimit="10" fill="none"/><path d="M738.108 513.553C738.108 516.253 735.919 518.442 733.219 518.442 730.519 518.442 728.331 516.253 728.331 513.553 728.331 510.853 730.519 508.664 733.219 508.664 735.919 508.664 738.108 510.853 738.108 513.553Z" stroke="#000000" stroke-width="1.7871" stroke-linecap="round" stroke-linejoin="round" stroke-miterlimit="10" fill="none"/><path d="M734.876 523.331 736.675 523.331C737.519 523.331 738.112 522.494 737.829 521.698 737.156 519.801 735.346 518.442 733.22 518.442 731.092 518.442 729.282 519.801 728.61 521.698 728.328 522.494 728.919 523.331 729.763 523.331L730.706 523.331" stroke="#000000" stroke-width="1.7871" stroke-linecap="round" stroke-linejoin="round" stroke-miterlimit="10" fill="none"/><path d="M700.993 513.754 691.305 513.754 691.305 522.142C691.305 523.205 692.167 524.066 693.229 524.066L699.069 524.066C700.132 524.066 700.993 523.205 700.993 522.142L700.993 513.754Z" stroke="#000000" stroke-width="1.7871" stroke-linecap="round" stroke-linejoin="round" stroke-miterlimit="10" fill="none"/><path d="M701.343 510.324 690.955 510.324C690.008 510.324 689.24 511.092 689.24 512.039L689.24 512.039C689.24 512.986 690.008 513.754 690.955 513.754L701.343 513.754C702.29 513.754 703.058 512.986 703.058 512.039L703.058 512.039C703.058 511.092 702.29 510.324 701.343 510.324Z" stroke="#000000" stroke-width="1.7871" stroke-linecap="round" stroke-linejoin="round" stroke-miterlimit="10" fill="none"/><path d="M699.471 510.324 699.471 508.433C699.471 507.823 698.976 507.329 698.367 507.329L693.932 507.329C693.322 507.329 692.828 507.823 692.828 508.433L692.828 510.324" stroke="#000000" stroke-width="1.7871" stroke-linecap="round" stroke-linejoin="round" stroke-miterlimit="10" fill="none"/><path d="M725.889 472.234 725.889 469.712C725.889 469.158 726.338 468.708 726.893 468.708L737.525 468.708C737.917 468.708 738.269 468.953 738.402 469.32L739.548 472.446C739.663 472.758 739.892 473.015 740.188 473.163L741.978 474.061C742.293 474.219 742.494 474.542 742.494 474.896L742.494 478.925C742.494 479.48 742.043 479.931 741.489 479.931L740.517 479.931" stroke="#000000" stroke-width="1.7871" stroke-linecap="round" stroke-linejoin="round" stroke-miterlimit="10" fill="none"/><path d="M725.889 476.404 725.889 478.925C725.889 479.48 726.338 479.931 726.893 479.931L727.867 479.931" stroke="#000000" stroke-width="1.7871" stroke-linecap="round" stroke-linejoin="round" stroke-miterlimit="10" fill="none"/><path d="M736.28 479.93 732.101 479.93" stroke="#000000" stroke-width="1.7871" stroke-linecap="round" stroke-linejoin="round" stroke-miterlimit="10" fill="none"/><path d="M732.102 479.93C732.102 481.1 731.154 482.048 729.984 482.048 728.814 482.048 727.866 481.1 727.866 479.93 727.866 478.76 728.814 477.812 729.984 477.812 731.154 477.812 732.102 478.76 732.102 479.93Z" stroke="#000000" stroke-width="1.7871" stroke-linecap="round" stroke-linejoin="round" stroke-miterlimit="10" fill="none"/><path d="M740.517 479.93C740.517 481.1 739.568 482.048 738.398 482.048 737.229 482.048 736.28 481.1 736.28 479.93 736.28 478.76 737.229 477.812 738.398 477.812 739.568 477.812 740.517 478.76 740.517 479.93Z" stroke="#000000" stroke-width="1.7871" stroke-linecap="round" stroke-linejoin="round" stroke-miterlimit="10" fill="none"/><path d="M734.124 468.708 734.124 479.93" stroke="#000000" stroke-width="1.7871" stroke-linecap="round" stroke-linejoin="round" stroke-miterlimit="10" fill="none"/><path d="M740.188 473.164 734.124 473.164" stroke="#000000" stroke-width="1.7871" stroke-linecap="round" stroke-linejoin="round" stroke-miterlimit="10" fill="none"/><path d="M699.808 467.374C699.166 466.877 698.232 467.335 698.232 468.147L698.232 470.619 694.039 467.374C693.397 466.877 692.463 467.335 692.463 468.147L692.463 470.619 688.271 467.374C687.628 466.877 686.695 467.335 686.695 468.147L686.695 478.416C686.695 479.041 687.201 479.547 687.826 479.547L702.87 479.547C703.494 479.547 704.001 479.041 704.001 478.416L704.001 471.671C704.001 471.007 703.693 470.381 703.169 469.975L699.808 467.374Z" stroke="#000000" stroke-width="1.7871" stroke-linecap="round" stroke-linejoin="round" stroke-miterlimit="10" fill="none"/><path d="M689.593 473.357 701.249 473.357" stroke="#000000" stroke-width="1.7871" stroke-linecap="round" stroke-linejoin="round" stroke-miterlimit="10" fill="none"/><path d="M689.593 476.342 701.249 476.342" stroke="#000000" stroke-width="1.7871" stroke-linecap="round" stroke-linejoin="round" stroke-miterlimit="10" fill="none"/><path d="M722.89 502.454 718.326 496.32C717.922 495.777 717.082 495.875 716.814 496.497L715.997 498.389C712.1 498.188 708.346 499.621 705.555 502.412 704.857 503.11 704.857 504.242 705.555 504.94 705.904 505.289 706.361 505.463 706.818 505.463 707.276 505.463 707.733 505.289 708.082 504.94 709.82 503.202 712.062 502.175 714.448 501.98L713.784 503.518C713.516 504.139 714.021 504.818 714.693 504.739L722.287 503.853C722.959 503.774 723.294 502.997 722.89 502.454Z" stroke="#000000" stroke-width="1.7871" stroke-linecap="round" stroke-linejoin="round" stroke-miterlimit="10" fill="none"/><path d="M705.555 502.412C707.292 500.674 708.319 498.432 708.515 496.047L706.977 496.71C706.355 496.979 705.676 496.473 705.755 495.801L706.642 488.207C706.72 487.535 707.497 487.2 708.04 487.604L714.174 492.168C714.717 492.572 714.619 493.413 713.997 493.681L712.106 494.497C712.181 495.959 712.026 497.4 711.657 498.778" stroke="#000000" stroke-width="1.7871" stroke-linecap="round" stroke-linejoin="round" stroke-miterlimit="10" fill="none"/></g></svg>