<svg width="74" height="74" xmlns="http://www.w3.org/2000/svg" xmlns:xlink="http://www.w3.org/1999/xlink" xml:space="preserve" overflow="hidden"><g transform="translate(-422 -325)"><path d="M0 0C-1.62684 2.48405-4.43478 4.12505-7.62602 4.12505L-17.157 4.12505C-22.1878 4.12505-26.2662 0.0466835-26.2662-4.98429L-26.2662-11.8018C-26.2662-11.8018-24.4233-11.7602-23.2391-12.9322-22.9924-13.1763-22.5734-12.9979-22.5734-12.6509L-22.5734-5.4134C-22.5734-3.77963-21.2489-2.45529-19.6153-2.45529L-16.9273-2.45529C-14.8477-2.45529-14.752-4.19501-12.3913-4.19501-10.0445-4.19501-9.93418-2.45529-7.85554-2.45529L-5.16756-2.45529C-3.53378-2.45529-2.20944-3.77963-2.20944-5.4134L-2.20944-12.6509C-2.20944-12.9979-1.79045-13.1763-1.54373-12.9322-0.359448-11.7602 1.48346-11.8018 1.48346-11.8018L1.48346-4.98429" stroke="#1E1E1E" stroke-width="2.16798" stroke-linecap="round" stroke-linejoin="round" stroke-miterlimit="10" fill="none" transform="matrix(1 0 0 -1 471.391 330.209)"/><path d="M0 0 0-4.61458C0-5.72472 0.899993-6.62471 2.01028-6.62471L2.77051-6.62471C2.83324-9.54221 4.05915-12.3504 6.27408-14.2575 8.0573-15.793 10.5638-17.1331 13.8748-17.1701 17.1859-17.1331 19.6923-15.793 21.4755-14.2575 23.6905-12.3504 24.9165-9.54221 24.9791-6.62471L25.7393-6.62471C26.8496-6.62471 27.7496-5.72472 27.7496-4.61458L27.7496 0" stroke="#1E1E1E" stroke-width="2.16798" stroke-linecap="round" stroke-linejoin="round" stroke-miterlimit="10" fill="none" transform="matrix(1 0 0 -1 445.125 342.011)"/><path d="M0 0C-2.37768 0.0265937-4.33824 0.726556-5.91622 1.68682L-5.91622-3.61096C-5.91622-6.87837-3.26741-9.52718 0-9.52718 3.26741-9.52718 5.91637-6.87837 5.91637-3.61096L5.91637 1.68682C4.33838 0.726556 2.37768 0.0265937 0 0Z" stroke="#1E1E1E" stroke-width="2.16798" stroke-linecap="round" stroke-linejoin="round" stroke-miterlimit="10" fill="none" transform="matrix(1 0 0 -1 459 359.181)"/><path d="M0 0 0-11.0033C0-13.2367 1.81054-15.0472 4.04397-15.0472L47.6573-15.0472C49.8907-15.0472 51.7011-13.2367 51.7011-11.0033L51.7011 0" stroke="#1E1E1E" stroke-width="2.16798" stroke-linecap="round" stroke-linejoin="round" stroke-miterlimit="10" fill="none" transform="matrix(1 0 0 -1 433.149 382.869)"/><path d="M0 0 0 12.0542C0 13.7072 1.33995 15.0472 2.99309 15.0472L10.3844 15.0472 10.3844 23.6954C10.3844 24.488 10.298 25.2809 10.0897 26.0456 9.21688 29.2486 6.61257 31.7656 3.26669 32.4609L-0.0346874 33.1468" stroke="#1E1E1E" stroke-width="2.16798" stroke-linecap="round" stroke-linejoin="round" stroke-miterlimit="10" fill="none" transform="matrix(1 0 0 -1 474.466 397.916)"/><path d="M0 0-4.50719 0.936415" stroke="#1E1E1E" stroke-width="2.16798" stroke-linecap="round" stroke-linejoin="round" stroke-miterlimit="10" fill="none" transform="matrix(1 0 0 -1 469.423 363.729)"/><path d="M0 0 0 0-4.50719-0.936415" stroke="#1E1E1E" stroke-width="2.16798" stroke-linecap="round" stroke-linejoin="round" stroke-miterlimit="10" fill="none" transform="matrix(1 0 0 -1 453.084 362.792)"/><path d="M0 0-3.30123-0.685943C-6.64726-1.38114-9.25156-3.89829-10.1242-7.10123-10.3327-7.86595-10.4191-8.65884-10.4191-9.45145L-10.4191-18.0996-3.02778-18.0996C-1.37463-18.0996-0.0345429-19.4397-0.0345429-21.0927L-0.0345429-33.1468" stroke="#1E1E1E" stroke-width="2.16798" stroke-linecap="round" stroke-linejoin="round" stroke-miterlimit="10" fill="none" transform="matrix(1 0 0 -1 443.568 364.769)"/><path d="M0 0C-0.10175-2.50284-0.673514-4.5533-1.68176-6.57355" stroke="#1E1E1E" stroke-width="2.16798" stroke-linecap="round" stroke-linejoin="round" stroke-miterlimit="10" fill="none" transform="matrix(1 0 0 -1 443.552 376.61)"/><path d="M0 0 1.13905 1.22793C3.91071 5.39028 5.04268 9.18811 5.04268 14.1887L5.04268 26.6862C5.04268 27.5281 4.24718 28.1432 3.43232 27.9312L0.997263 27.298C0.430413 27.1505 0.0345429 26.6388 0.0345429 26.0528L0.0345429 18.4379" stroke="#1E1E1E" stroke-width="2.16798" stroke-linecap="round" stroke-linejoin="round" stroke-miterlimit="10" fill="none" transform="matrix(1 0 0 -1 443.534 389.973)"/><path d="M0 0C-1.11693 2.23792-1.69824 4.51283-1.69824 7.39853L-1.69824 19.2626C-1.69824 19.8486-2.09396 20.3603-2.66096 20.5078L-5.09587 21.141C-5.91073 21.353-6.70623 20.7379-6.70623 19.896L-6.70623 7.39853C-6.70623 2.39791-5.57426-1.39993-2.80274-5.56227L-1.66355-6.7902" stroke="#1E1E1E" stroke-width="2.16798" stroke-linecap="round" stroke-linejoin="round" stroke-miterlimit="10" fill="none" transform="matrix(1 0 0 -1 476.13 383.183)"/><path d="M0 0 0 0 0 5.29778" stroke="#1E1E1E" stroke-width="2.16798" stroke-linecap="round" stroke-linejoin="round" stroke-miterlimit="10" fill="none" transform="matrix(1 0 0 -1 453.084 362.792)"/><path d="M0 0C-2.319-1.98036-3.79104-4.92344-3.79104-8.2121L-3.79104-8.2121C-3.79104-8.25878-3.78815-8.3046-3.78757-8.35114" stroke="#1E1E1E" stroke-width="2.16798" stroke-linecap="round" stroke-linejoin="round" stroke-miterlimit="10" fill="none" transform="matrix(1 0 0 -1 442.79 357.465)"/><path d="M0 0C0.000578123 0.0463944 0.00346874 0.0923552 0.00346874 0.138894L0.00346874 0.139039C0.00346874 3.42755-1.46858 6.37077-3.78757 8.35114" stroke="#1E1E1E" stroke-width="2.16798" stroke-linecap="round" stroke-linejoin="round" stroke-miterlimit="10" fill="none" transform="matrix(1 0 0 -1 478.997 365.817)"/><path d="M0 0 0-5.29778" stroke="#1E1E1E" stroke-width="2.16798" stroke-linecap="round" stroke-linejoin="round" stroke-miterlimit="10" fill="none" transform="matrix(1 0 0 -1 464.916 357.494)"/><path d="M0 0 14.8056 0C17.0425 0 18.8559 1.81343 18.8559 4.05033L18.8559 7.26051C18.8559 9.49741 17.0425 11.3108 14.8056 11.3108L7.91118 11.3108" stroke="#1E1E1E" stroke-width="2.16798" stroke-linecap="round" stroke-linejoin="round" stroke-miterlimit="10" fill="none" transform="matrix(1 0 0 -1 464.964 357.465)"/><path d="M0 0-6.89441 0C-9.13131 0-10.9447-1.81328-10.9447-4.05019L-10.9447-7.26051C-10.9447-9.49741-9.13131-11.3108-6.89441-11.3108L7.91118-11.3108" stroke="#1E1E1E" stroke-width="2.16798" stroke-linecap="round" stroke-linejoin="round" stroke-miterlimit="10" fill="none" transform="matrix(1 0 0 -1 445.125 346.155)"/></g></svg>